<?xml version="1.0" encoding="UTF-8" standalone="no"?>
<!DOCTYPE svg PUBLIC "-//W3C//DTD SVG 20010904//EN"
              "http://www.w3.org/TR/2001/REC-SVG-20010904/DTD/svg10.dtd">

<svg xmlns="http://www.w3.org/2000/svg"
     width="8.00002in" height="6.00001in"
     viewBox="0 0 2400 1800">
  <path id="Selection"
        fill="none" stroke="black" stroke-width="1"
        d="M 929.00,816.00
           C 925.99,815.36 916.30,812.62 914.00,813.06
             910.77,813.68 907.32,817.63 905.17,820.00
             905.17,820.00 889.00,837.00 889.00,837.00
             889.00,837.00 825.00,896.28 825.00,896.28
             742.55,967.98 631.33,1049.70 532.00,1095.31
             486.62,1116.14 438.18,1133.58 388.00,1137.09
             388.00,1137.09 376.00,1138.00 376.00,1138.00
             357.01,1138.03 339.31,1137.12 321.00,1131.25
             311.87,1128.33 303.00,1124.29 295.00,1119.00
             288.90,1114.97 281.36,1109.24 276.42,1103.91
             254.98,1080.77 243.05,1047.48 243.00,1016.00
             243.00,1016.00 243.00,993.00 243.00,993.00
             243.00,993.00 244.85,974.00 244.85,974.00
             248.07,947.06 253.72,925.19 263.80,900.00
             278.03,864.42 295.17,829.24 323.04,802.09
             368.80,757.52 431.19,738.73 494.00,738.00
             494.00,738.00 509.00,737.00 509.00,737.00
             509.00,737.00 557.00,737.00 557.00,737.00
             557.00,737.00 569.00,737.96 569.00,737.96
             569.00,737.96 582.00,737.96 582.00,737.96
             582.00,737.96 592.00,739.00 592.00,739.00
             592.00,739.00 601.00,739.00 601.00,739.00
             601.00,739.00 633.00,741.83 633.00,741.83
             668.11,745.23 703.09,749.00 738.00,754.42
             738.00,754.42 864.00,776.60 864.00,776.60
             864.00,776.60 897.00,783.42 897.00,783.42
             900.72,784.24 907.52,786.53 911.00,784.94
             914.35,783.41 919.88,776.93 922.42,774.00
             922.42,774.00 935.28,760.00 935.28,760.00
             935.28,760.00 983.15,706.00 983.15,706.00
             983.15,706.00 1079.42,592.00 1079.42,592.00
             1079.42,592.00 1167.35,483.00 1167.35,483.00
             1186.88,457.77 1206.49,432.47 1224.33,406.00
             1228.62,399.63 1237.80,383.59 1244.00,380.45
             1247.55,378.66 1252.10,378.96 1256.00,379.00
             1269.82,379.17 1286.23,388.71 1297.00,396.90
             1301.12,400.03 1307.71,405.62 1308.52,411.00
             1308.99,414.21 1305.65,423.33 1304.58,427.00
             1304.58,427.00 1291.00,468.00 1291.00,468.00
             1291.00,468.00 1260.34,562.00 1260.34,562.00
             1260.34,562.00 1245.00,609.00 1245.00,609.00
             1245.00,609.00 1284.00,595.34 1284.00,595.34
             1332.08,579.98 1385.97,566.30 1436.00,559.72
             1436.00,559.72 1485.00,554.00 1485.00,554.00
             1485.00,554.00 1493.00,554.00 1493.00,554.00
             1493.00,554.00 1503.00,553.00 1503.00,553.00
             1573.41,552.18 1645.45,563.78 1711.00,590.00
             1751.28,606.11 1787.97,627.14 1821.00,655.43
             1845.89,676.75 1867.08,702.50 1883.28,731.00
             1896.85,754.86 1907.50,782.18 1913.42,809.00
             1920.68,841.87 1921.16,858.83 1921.00,892.00
             1921.00,892.00 1920.09,903.00 1920.09,903.00
             1918.70,922.93 1915.22,942.61 1910.37,962.00
             1894.12,1027.01 1859.27,1089.68 1816.57,1141.00
             1784.16,1179.94 1736.68,1221.36 1696.00,1251.87
             1652.09,1284.81 1600.85,1317.18 1549.00,1335.69
             1530.86,1342.17 1503.16,1349.77 1484.00,1350.00
             1455.37,1350.33 1430.21,1348.67 1406.00,1331.25
             1399.08,1326.28 1392.89,1320.22 1387.09,1314.00
             1381.85,1308.37 1380.14,1304.84 1373.00,1301.00
             1368.13,1313.26 1369.09,1315.43 1367.83,1328.00
             1367.83,1328.00 1366.00,1351.00 1366.00,1351.00
             1366.00,1351.00 1365.00,1371.00 1365.00,1371.00
             1365.00,1371.00 1365.96,1385.00 1365.96,1385.00
             1365.78,1389.56 1364.10,1400.56 1357.11,1398.34
             1352.18,1396.78 1351.27,1387.33 1350.98,1383.00
             1350.98,1383.00 1350.04,1375.00 1350.04,1375.00
             1350.04,1375.00 1350.04,1357.00 1350.04,1357.00
             1350.04,1357.00 1351.00,1338.00 1351.00,1338.00
             1351.00,1338.00 1351.91,1328.00 1351.91,1328.00
             1351.91,1328.00 1354.09,1296.00 1354.09,1296.00
             1354.47,1290.48 1355.85,1284.54 1354.61,1279.00
             1353.61,1274.57 1348.62,1267.98 1346.00,1264.00
             1341.24,1256.76 1337.22,1248.83 1337.01,1240.00
             1336.78,1229.78 1340.33,1223.65 1349.00,1218.09
             1352.67,1215.74 1358.64,1214.27 1360.57,1210.79
             1360.57,1210.79 1365.00,1191.00 1365.00,1191.00
             1365.00,1191.00 1373.58,1151.00 1373.58,1151.00
             1398.33,1038.91 1429.71,927.88 1466.00,819.00
             1477.09,785.72 1497.27,728.73 1511.78,698.00
             1518.46,683.85 1520.52,675.20 1535.00,666.63
             1539.40,664.02 1543.84,662.26 1549.00,662.04
             1558.11,661.65 1560.73,665.10 1558.21,674.00
             1558.21,674.00 1547.60,700.00 1547.60,700.00
             1531.39,740.51 1516.07,781.70 1502.00,823.00
             1502.00,823.00 1460.67,944.00 1460.67,944.00
             1434.28,1024.93 1409.75,1106.40 1389.13,1189.00
             1389.13,1189.00 1381.92,1224.00 1381.92,1224.00
             1380.87,1230.37 1378.14,1246.22 1378.51,1252.00
             1379.60,1269.09 1384.86,1285.53 1397.01,1298.00
             1402.08,1303.20 1404.83,1306.01 1411.00,1309.95
             1418.41,1314.67 1425.51,1317.61 1434.00,1319.84
             1446.66,1323.18 1460.01,1323.15 1473.00,1323.00
             1488.23,1322.82 1508.13,1318.59 1523.00,1314.87
             1561.92,1305.14 1602.23,1286.70 1637.00,1266.85
             1688.46,1237.47 1745.78,1192.48 1784.71,1148.00
             1840.00,1084.85 1879.36,1001.50 1883.04,917.00
             1883.04,917.00 1884.00,904.00 1884.00,904.00
             1884.00,904.00 1884.00,894.00 1884.00,894.00
             1884.00,894.00 1882.96,884.00 1882.96,884.00
             1882.96,884.00 1882.96,875.00 1882.96,875.00
             1880.66,852.22 1876.25,829.73 1869.00,808.00
             1860.97,783.94 1850.11,762.08 1836.00,741.00
             1824.03,723.12 1813.13,711.13 1798.00,696.00
             1735.82,633.82 1654.86,602.92 1569.00,591.72
             1569.00,591.72 1527.00,587.91 1527.00,587.91
             1527.00,587.91 1517.00,587.00 1517.00,587.00
             1517.00,587.00 1482.00,587.00 1482.00,587.00
             1482.00,587.00 1469.00,587.96 1469.00,587.96
             1446.92,588.92 1424.90,591.57 1403.00,594.73
             1361.96,600.65 1320.84,609.84 1281.00,621.29
             1281.00,621.29 1251.00,630.67 1251.00,630.67
             1248.13,631.62 1239.40,634.17 1237.51,635.84
             1235.25,637.83 1232.41,648.62 1231.42,652.00
             1231.42,652.00 1219.58,693.00 1219.58,693.00
             1219.58,693.00 1191.89,795.00 1191.89,795.00
             1191.89,795.00 1184.21,828.00 1184.21,828.00
             1184.21,828.00 1179.00,853.00 1179.00,853.00
             1199.30,858.93 1222.98,864.83 1244.00,866.83
             1266.12,868.94 1288.76,868.00 1311.00,868.00
             1311.28,836.74 1323.70,796.65 1343.01,772.00
             1343.01,772.00 1348.09,766.00 1348.09,766.00
             1355.24,758.32 1362.71,750.40 1374.00,751.04
             1378.68,751.31 1381.26,752.87 1383.59,757.02
             1384.68,758.97 1385.57,761.81 1386.10,764.00
             1387.07,767.97 1386.99,770.01 1387.00,774.00
             1387.00,774.00 1387.00,780.00 1387.00,780.00
             1386.97,801.47 1373.41,829.97 1360.84,847.00
             1353.40,857.08 1344.21,866.87 1331.00,867.00
             1331.00,867.00 1349.55,841.00 1349.55,841.00
             1358.11,826.73 1367.92,801.70 1368.00,785.00
             1368.00,785.00 1368.00,775.00 1368.00,775.00
             1358.04,781.67 1353.08,788.37 1346.29,798.00
             1327.67,824.43 1323.85,846.51 1324.00,878.00
             1324.00,878.00 1325.28,897.00 1325.28,897.00
             1325.28,897.00 1331.00,929.00 1331.00,929.00
             1342.22,917.78 1352.16,908.01 1360.00,894.00
             1360.00,894.00 1363.00,894.00 1363.00,894.00
             1366.59,908.76 1358.81,922.67 1349.99,934.00
             1347.82,936.79 1339.21,946.61 1338.54,949.00
             1337.66,952.11 1340.95,958.91 1342.20,962.00
             1345.80,970.89 1353.82,985.28 1363.00,988.99
             1365.67,990.08 1368.19,989.97 1371.00,990.00
             1370.25,1003.53 1358.86,1022.73 1344.09,1009.67
             1334.97,1001.61 1323.10,976.24 1322.00,964.00
             1322.00,964.00 1295.00,983.31 1295.00,983.31
             1275.67,995.89 1252.57,1006.57 1230.00,1011.58
             1218.07,1014.23 1198.06,1018.39 1192.85,1003.00
             1191.75,999.76 1191.96,994.50 1192.00,991.00
             1192.16,977.55 1201.00,961.02 1208.33,950.00
             1221.34,930.45 1236.72,913.29 1255.00,898.46
             1255.00,898.46 1278.00,882.00 1278.00,882.00
             1278.00,882.00 1263.00,882.00 1263.00,882.00
             1251.27,881.98 1219.59,876.75 1207.00,874.39
             1207.00,874.39 1187.00,870.40 1187.00,870.40
             1184.89,870.22 1180.32,869.15 1178.43,870.40
             1175.63,871.74 1175.11,879.01 1174.58,882.00
             1174.58,882.00 1168.59,915.00 1168.59,915.00
             1163.12,947.56 1158.17,980.08 1155.91,1013.00
             1155.91,1013.00 1155.00,1025.00 1155.00,1025.00
             1155.00,1025.00 1155.00,1056.00 1155.00,1056.00
             1155.01,1063.66 1156.76,1078.47 1158.42,1086.00
             1159.20,1089.54 1160.27,1095.03 1162.51,1097.82
             1166.66,1102.98 1178.37,1106.14 1180.99,1110.52
             1183.52,1114.74 1178.44,1121.61 1174.96,1123.78
             1165.35,1129.75 1153.58,1126.28 1144.00,1122.40
             1129.11,1116.37 1091.05,1091.73 1077.00,1081.71
             1026.12,1045.44 977.16,999.71 961.47,937.00
             957.11,919.56 955.79,902.90 956.00,885.00
             956.13,874.15 959.42,853.53 962.43,843.00
             962.43,843.00 968.00,825.00 968.00,825.00
             968.00,825.00 929.00,816.00 929.00,816.00 Z
           M 1008.61,760.00
           C 1039.78,721.64 1079.53,690.96 1122.00,666.01
             1139.25,655.88 1157.72,646.01 1176.00,637.86
             1180.97,635.65 1197.40,629.58 1199.86,625.79
             1201.17,623.77 1203.42,614.94 1204.34,612.00
             1204.34,612.00 1214.02,579.00 1214.02,579.00
             1214.02,579.00 1233.02,517.00 1233.02,517.00
             1233.02,517.00 1246.98,474.00 1246.98,474.00
             1250.20,463.62 1255.01,450.89 1253.83,440.00
             1253.14,433.67 1250.40,428.18 1243.00,429.75
             1233.91,431.67 1222.74,448.51 1217.13,456.00
             1217.13,456.00 1163.00,526.00 1163.00,526.00
             1114.33,587.37 1064.23,647.78 1011.83,706.00
             1011.83,706.00 957.83,765.00 957.83,765.00
             950.61,772.98 938.03,784.57 932.00,793.00
             932.00,793.00 978.00,806.00 978.00,806.00
             983.98,792.19 998.97,771.86 1008.61,760.00 Z
           M 1134.00,680.15
           C 1096.72,701.42 1064.60,724.74 1035.95,757.00
             1021.65,773.11 1007.56,792.14 999.00,812.00
             999.00,812.00 1041.00,822.63 1041.00,822.63
             1041.00,822.63 1113.00,839.21 1113.00,839.21
             1113.00,839.21 1152.00,847.00 1152.00,847.00
             1152.11,834.84 1158.55,798.24 1161.20,785.00
             1161.20,785.00 1183.37,688.00 1183.37,688.00
             1183.37,688.00 1193.00,652.00 1193.00,652.00
             1179.90,655.70 1146.70,672.90 1134.00,680.15 Z
           M 855.00,799.58
           C 855.00,799.58 785.00,785.39 785.00,785.39
             738.33,776.65 684.28,769.22 637.00,765.91
             637.00,765.91 592.00,763.00 592.00,763.00
             592.00,763.00 577.00,762.00 577.00,762.00
             577.00,762.00 559.00,762.00 559.00,762.00
             559.00,762.00 543.00,761.00 543.00,761.00
             543.00,761.00 518.00,761.00 518.00,761.00
             518.00,761.00 505.00,761.98 505.00,761.98
             505.00,761.98 490.00,761.98 490.00,761.98
             490.00,761.98 466.00,763.91 466.00,763.91
             423.41,767.02 383.09,776.22 349.00,803.45
             298.73,843.61 272.22,914.23 267.91,977.00
             267.91,977.00 267.00,987.00 267.00,987.00
             266.50,1030.20 275.25,1074.92 313.00,1101.56
             319.83,1106.38 327.15,1110.09 335.00,1112.95
             346.15,1117.00 352.65,1117.08 364.00,1118.17
             364.00,1118.17 372.00,1118.97 372.00,1118.97
             372.00,1118.97 388.00,1118.00 388.00,1118.00
             397.52,1117.88 414.32,1115.17 424.00,1113.42
             460.33,1106.87 495.41,1094.45 529.00,1079.30
             621.81,1037.45 704.17,976.29 781.00,910.13
             781.00,910.13 835.00,861.83 835.00,861.83
             835.00,861.83 847.00,850.17 847.00,850.17
             855.65,842.34 883.17,816.14 889.00,808.00
             889.00,808.00 855.00,799.58 855.00,799.58 Z
           M 1113.00,856.40
           C 1113.00,856.40 1057.00,844.58 1057.00,844.58
             1057.00,844.58 1018.00,836.12 1018.00,836.12
             1018.00,836.12 991.00,831.00 991.00,831.00
             991.00,831.00 983.28,866.00 983.28,866.00
             981.78,877.76 981.98,889.18 982.00,901.00
             982.04,924.49 992.08,948.92 1003.58,969.00
             1027.47,1010.74 1062.32,1043.50 1101.00,1071.42
             1111.11,1078.72 1136.07,1097.16 1146.00,1102.00
             1146.00,1102.00 1142.27,1079.00 1142.27,1079.00
             1142.27,1079.00 1139.00,1040.00 1139.00,1040.00
             1139.00,1040.00 1138.00,1026.00 1138.00,1026.00
             1138.00,1026.00 1138.00,992.00 1138.00,992.00
             1138.00,992.00 1139.00,975.00 1139.00,975.00
             1139.00,975.00 1141.91,925.00 1141.91,925.00
             1141.91,925.00 1148.00,864.00 1148.00,864.00
             1148.00,864.00 1113.00,856.40 1113.00,856.40 Z
           M 1271.00,909.00
           C 1258.17,921.82 1247.65,933.37 1238.20,949.00
             1232.40,958.60 1225.58,971.85 1224.00,983.00
             1224.00,983.00 1236.00,981.54 1236.00,981.54
             1255.56,977.98 1279.35,966.39 1296.00,955.69
             1300.30,952.93 1313.95,945.44 1315.23,940.91
             1315.23,940.91 1312.42,920.00 1312.42,920.00
             1310.55,906.40 1310.00,892.72 1310.00,879.00
             1296.78,885.45 1281.40,898.60 1271.00,909.00 Z" />
</svg>
